<?xml version="1.0" encoding="UTF-8" standalone="no"?>
<svg
   xmlns:dc="http://purl.org/dc/elements/1.1/"
   xmlns:cc="http://creativecommons.org/ns#"
   xmlns:rdf="http://www.w3.org/1999/02/22-rdf-syntax-ns#"
   xmlns:svg="http://www.w3.org/2000/svg"
   xmlns="http://www.w3.org/2000/svg"
   xmlns:sodipodi="http://sodipodi.sourceforge.net/DTD/sodipodi-0.dtd"
   xmlns:inkscape="http://www.inkscape.org/namespaces/inkscape"
   width="16"
   height="16"
   viewBox="0 0 16 16"
   version="1.1"
   id="svg8"
   inkscape:version="0.92.3 (2405546, 2018-03-11)"
   sodipodi:docname="skel.svg">
  <defs
     id="defs2" />
  <sodipodi:namedview
     id="base"
     pagecolor="#1b1b1b"
     bordercolor="#666666"
     borderopacity="1.0"
     inkscape:pageopacity="1"
     inkscape:pageshadow="2"
     inkscape:zoom="64"
     inkscape:cx="10.674094"
     inkscape:cy="6.4952652"
     inkscape:document-units="px"
     inkscape:current-layer="layer4"
     inkscape:document-rotation="0"
     showgrid="true"
     units="px"
     inkscape:pagecheckerboard="true"
     inkscape:showpageshadow="false"
     inkscape:deskcolor="#d1d1d1"
     inkscape:window-width="3000"
     inkscape:window-height="1890"
     inkscape:window-x="-12"
     inkscape:window-y="-12"
     inkscape:window-maximized="1">
    <inkscape:grid
       type="xygrid"
       id="grid833" />
  </sodipodi:namedview>
  <metadata
     id="metadata5">
    <rdf:RDF>
      <cc:Work
         rdf:about="">
        <dc:format>image/svg+xml</dc:format>
        <dc:type
           rdf:resource="http://purl.org/dc/dcmitype/StillImage" />
        <dc:title></dc:title>
      </cc:Work>
    </rdf:RDF>
  </metadata>
  <g
     inkscape:groupmode="layer"
     id="layer4"
     inkscape:label="Layer 1">
    <g
       style="fill:#ffffff;stroke:#ffffff"
       id="g5580"
       transform="matrix(0.08251889,0,0,0.08251805,0.04109437,0.04125711)">
      <g
         id="SVGRepo_bgCarrier"
         style="stroke-width:0" />
      <g
         id="SVGRepo_iconCarrier"> <path
   id="path5522"
   d="M 182.792,43.917 C 176.441,37.566 168.038,34.001 159.068,33.838 158.915,25.047 155.4,16.523 148.971,10.096 142.461,3.586 133.801,0 124.587,0 115.373,0 106.713,3.585 100.205,10.094 93.686,16.61 90.097,25.273 90.097,34.487 c 0,8.418 2.995,16.375 8.488,22.662 L 57.155,98.588 C 50.872,93.097 42.91,90.1 34.488,90.1 c -9.213,0 -17.875,3.588 -24.39,10.104 -6.511,6.509 -10.096,15.168 -10.096,24.382 0,9.215 3.588,17.878 10.104,24.394 6.353,6.351 14.756,9.915 23.725,10.078 0.154,8.791 3.669,17.315 10.096,23.743 6.512,6.51 15.172,10.095 24.384,10.096 10e-4,0 0.002,0 0.003,0 9.211,0 17.869,-3.585 24.379,-10.094 6.519,-6.516 10.109,-15.179 10.109,-24.392 0,-8.423 -3,-16.384 -8.49,-22.662 l 41.432,-41.442 c 6.284,5.491 14.247,8.489 22.669,8.489 9.212,0 17.874,-3.588 24.388,-10.103 6.511,-6.508 10.096,-15.167 10.096,-24.381 -0.002,-9.215 -3.59,-17.879 -10.105,-24.395 z m -10.598,38.168 c -3.682,3.682 -8.577,5.71 -13.783,5.71 -5.209,0 -10.107,-2.029 -13.793,-5.714 -0.847,-0.847 -1.642,-1.817 -2.364,-2.885 -1.254,-1.854 -3.271,-3.051 -5.499,-3.264 -2.229,-0.217 -4.435,0.58 -6.018,2.163 L 78.1,130.745 c -1.584,1.585 -2.377,3.795 -2.161,6.025 0.216,2.231 1.418,4.248 3.276,5.499 1.063,0.715 2.001,1.486 2.875,2.36 3.682,3.681 5.71,8.574 5.71,13.779 -10e-4,5.206 -2.03,10.101 -5.714,13.785 -3.678,3.677 -8.569,5.702 -13.774,5.702 0,0 -0.002,0 -0.002,0 -5.207,0 -10.102,-2.026 -13.78,-5.704 -5.139,-5.139 -6.979,-12.659 -4.803,-19.626 0.832,-2.663 0.117,-5.567 -1.855,-7.54 -1.428,-1.428 -3.344,-2.197 -5.304,-2.197 -0.747,0 -1.5,0.111 -2.235,0.341 -1.896,0.592 -3.867,0.892 -5.86,0.892 -5.204,0 -10.092,-2.021 -13.763,-5.691 -3.682,-3.682 -5.709,-8.578 -5.709,-13.787 0,-5.206 2.025,-10.098 5.702,-13.774 3.683,-3.682 8.578,-5.71 13.784,-5.71 5.209,0 10.107,2.029 13.787,5.708 0.85,0.851 1.648,1.824 2.372,2.893 1.254,1.853 3.271,3.048 5.498,3.26 2.229,0.21 4.434,-0.581 6.015,-2.164 l 52.637,-52.648 c 1.584,-1.583 2.376,-3.792 2.162,-6.021 -0.214,-2.229 -1.413,-4.246 -3.269,-5.498 -1.055,-0.712 -2.028,-1.51 -2.883,-2.362 -3.681,-3.681 -5.709,-8.576 -5.708,-13.781 0,-5.207 2.029,-10.103 5.714,-13.786 3.677,-3.677 8.569,-5.702 13.777,-5.702 5.208,0 10.101,2.026 13.779,5.705 5.14,5.139 6.98,12.658 4.803,19.624 -0.833,2.663 -0.118,5.567 1.854,7.54 1.972,1.973 4.877,2.688 7.54,1.856 1.895,-0.592 3.867,-0.892 5.86,-0.892 5.205,0 10.092,2.021 13.762,5.69 3.682,3.683 5.71,8.58 5.71,13.789 -0.002,5.209 -2.026,10.1 -5.703,13.775 z"
   inkscape:connector-curvature="0" />
 <g
   id="g5524"> </g>
 <g
   id="g5526"> </g>
 <g
   id="g5528"> </g>
 <g
   id="g5530"> </g>
 <g
   id="g5532"> </g>
 <g
   id="g5534"> </g>
 <g
   id="g5536"> </g>
 <g
   id="g5538"> </g>
 <g
   id="g5540"> </g>
 <g
   id="g5542"> </g>
 <g
   id="g5544"> </g>
 <g
   id="g5546"> </g>
 <g
   id="g5548"> </g>
 <g
   id="g5550"> </g>
 <g
   id="g5552"> </g>
 </g>
    </g>
  </g>
  <inkscape:templateinfo>
    <inkscape:name>default</inkscape:name>
    <inkscape:date>2020-08-26</inkscape:date>
  </inkscape:templateinfo>
</svg>
